<svg width="199" height="24" viewBox="0 0 199 24" fill="none" xmlns="http://www.w3.org/2000/svg">
<path d="M51.5 2.25H42.5C41.1081 2.25149 39.7736 2.80509 38.7893 3.78933C37.8051 4.77358 37.2515 6.10807 37.25 7.5V16.5C37.2515 17.8919 37.8051 19.2264 38.7893 20.2107C39.7736 21.1949 41.1081 21.7485 42.5 21.75H51.5C52.8919 21.7485 54.2264 21.1949 55.2107 20.2107C56.1949 19.2264 56.7485 17.8919 56.75 16.5V7.5C56.7485 6.10807 56.1949 4.77358 55.2107 3.78933C54.2264 2.80509 52.8919 2.25149 51.5 2.25ZM47 16.5C46.11 16.5 45.24 16.2361 44.4999 15.7416C43.7599 15.2471 43.1831 14.5443 42.8425 13.7221C42.5019 12.8998 42.4128 11.995 42.5865 11.1221C42.7601 10.2492 43.1887 9.44736 43.818 8.81802C44.4474 8.18868 45.2492 7.7601 46.1221 7.58647C46.995 7.41283 47.8998 7.50195 48.7221 7.84254C49.5443 8.18314 50.2471 8.75991 50.7416 9.49993C51.2361 10.24 51.5 11.11 51.5 12C51.4988 13.1931 51.0243 14.337 50.1806 15.1806C49.337 16.0243 48.1931 16.4988 47 16.5ZM52.625 7.5C52.4025 7.5 52.185 7.43402 52 7.3104C51.815 7.18679 51.6708 7.01109 51.5856 6.80552C51.5005 6.59995 51.4782 6.37375 51.5216 6.15552C51.565 5.93729 51.6722 5.73684 51.8295 5.5795C51.9868 5.42217 52.1873 5.31502 52.4055 5.27162C52.6238 5.22821 52.85 5.25049 53.0555 5.33564C53.2611 5.42078 53.4368 5.56498 53.5604 5.74998C53.684 5.93499 53.75 6.1525 53.75 6.375C53.75 6.67337 53.6315 6.95952 53.4205 7.1705C53.2095 7.38147 52.9234 7.5 52.625 7.5ZM50 12C50 12.5933 49.8241 13.1734 49.4944 13.6667C49.1648 14.1601 48.6962 14.5446 48.1481 14.7716C47.5999 14.9987 46.9967 15.0581 46.4147 14.9424C45.8328 14.8266 45.2982 14.5409 44.8787 14.1213C44.4591 13.7018 44.1734 13.1672 44.0576 12.5853C43.9419 12.0033 44.0013 11.4001 44.2284 10.8519C44.4554 10.3038 44.8399 9.83524 45.3333 9.50559C45.8266 9.17595 46.4067 9 47 9C47.7956 9 48.5587 9.31607 49.1213 9.87868C49.6839 10.4413 50 11.2044 50 12Z" fill="#808080"/>
<path d="M196.968 6.5175C196.88 6.17189 196.711 5.85224 196.475 5.58491C196.238 5.31758 195.942 5.11024 195.61 4.98C192.396 3.73875 187.281 3.75 187 3.75C186.719 3.75 181.604 3.73875 178.39 4.98C178.058 5.11024 177.762 5.31758 177.525 5.58491C177.289 5.85224 177.12 6.17189 177.032 6.5175C176.789 7.45313 176.5 9.16313 176.5 12C176.5 14.8369 176.789 16.5469 177.032 17.4825C177.12 17.8283 177.289 18.1481 177.525 18.4156C177.761 18.6831 178.058 18.8906 178.39 19.0209C181.469 20.2088 186.287 20.25 186.938 20.25H187.062C187.713 20.25 192.534 20.2088 195.61 19.0209C195.942 18.8906 196.239 18.6831 196.475 18.4156C196.711 18.1481 196.88 17.8283 196.968 17.4825C197.211 16.545 197.5 14.8369 197.5 12C197.5 9.16313 197.211 7.45313 196.968 6.5175ZM190.208 12.3122L185.708 15.3122C185.652 15.3499 185.586 15.3715 185.518 15.3748C185.45 15.3781 185.383 15.3629 185.323 15.3309C185.263 15.2988 185.213 15.2511 185.178 15.1928C185.143 15.1346 185.125 15.0679 185.125 15V9C185.125 8.9321 185.143 8.86545 185.178 8.80718C185.213 8.74892 185.263 8.70121 185.323 8.66916C185.383 8.63711 185.45 8.62191 185.518 8.6252C185.586 8.62849 185.652 8.65013 185.708 8.68782L190.208 11.6878C190.26 11.722 190.302 11.7685 190.331 11.8229C190.36 11.8774 190.375 11.9382 190.375 12C190.375 12.0618 190.36 12.1226 190.331 12.1771C190.302 12.2315 190.26 12.278 190.208 12.3122Z" fill="#808080"/>
<path d="M109 7C109 5.343 110.343 4 112 4H122C123.657 4 125 5.343 125 7V17C125 18.657 123.657 20 122 20H112C110.343 20 109 18.657 109 17V7ZM113.85 17.393V10.169H111.434V17.393H113.85ZM112.642 9.182C113.484 9.182 114.009 8.628 114.009 7.934C113.993 7.225 113.484 6.686 112.658 6.686C111.831 6.686 111.291 7.225 111.291 7.934C111.291 8.628 111.815 9.182 112.626 9.182H112.642ZM117.604 17.393V13.359C117.604 13.143 117.62 12.928 117.683 12.773C117.858 12.342 118.256 11.895 118.923 11.895C119.798 11.895 120.148 12.557 120.148 13.529V17.393H122.564V13.251C122.564 11.032 121.372 9.999 119.782 9.999C118.5 9.999 117.925 10.699 117.604 11.192V10.169H115.187C115.219 10.844 115.188 17.352 115.187 17.394L117.604 17.393Z" fill="#808080"/>
<path d="M157.631 7.13598C157.514 7.07698 157.401 7.01198 157.29 6.94098C156.97 6.73298 156.676 6.48798 156.415 6.21098C155.763 5.47798 155.519 4.73398 155.429 4.21298H155.433C155.358 3.77998 155.389 3.50098 155.394 3.50098H152.421V14.79C152.421 14.942 152.421 15.092 152.415 15.24C152.415 15.258 152.413 15.275 152.412 15.295C152.412 15.303 152.412 15.311 152.41 15.32V15.326C152.346 16.149 151.87 16.886 151.14 17.294C150.765 17.503 150.342 17.613 149.91 17.613C148.526 17.613 147.403 16.503 147.403 15.134C147.403 13.764 148.526 12.655 149.91 12.655C150.173 12.654 150.433 12.695 150.682 12.775L150.686 9.80198C149.156 9.60798 147.614 10.051 146.432 11.024C145.919 11.462 145.489 11.983 145.159 12.566C145.033 12.779 144.56 13.632 144.503 15.018C144.467 15.805 144.707 16.62 144.822 16.956V16.964C144.894 17.162 145.173 17.839 145.629 18.409C145.996 18.867 146.43 19.269 146.916 19.602V19.595L146.923 19.602C148.362 20.563 149.958 20.5 149.958 20.5C150.234 20.489 151.159 20.5 152.21 20.011C153.375 19.468 154.038 18.661 154.038 18.661C154.462 18.178 154.799 17.628 155.035 17.034C155.304 16.34 155.394 15.507 155.394 15.174V9.18398C155.43 9.20598 155.91 9.51798 155.91 9.51798C155.91 9.51798 156.602 9.95298 157.681 10.237C158.456 10.439 159.499 10.481 159.499 10.481V7.58298C159.133 7.62198 158.391 7.50798 157.631 7.13598Z" fill="#808080"/>
<path d="M82.001 4C77.582 4 74 7.582 74 11.999C74 15.276 75.97 18.09 78.789 19.327C78.765 18.768 78.784 18.098 78.927 17.491C79.082 16.841 79.957 13.131 79.957 13.131C79.957 13.131 79.702 12.62 79.702 11.865C79.702 10.679 80.389 9.794 81.244 9.794C81.973 9.794 82.323 10.341 82.323 10.995C82.323 11.726 81.857 12.821 81.618 13.834C81.417 14.683 82.043 15.375 82.879 15.375C84.396 15.375 85.417 13.428 85.417 11.122C85.417 9.369 84.236 8.056 82.088 8.056C79.661 8.056 78.15 9.866 78.15 11.887C78.15 12.584 78.354 13.076 78.677 13.456C78.824 13.631 78.845 13.702 78.791 13.902C78.753 14.049 78.665 14.404 78.628 14.544C78.575 14.747 78.411 14.819 78.228 14.745C77.11 14.288 76.59 13.065 76.59 11.688C76.59 9.416 78.507 6.691 82.307 6.691C85.362 6.691 87.373 8.901 87.373 11.273C87.373 14.412 85.627 16.757 83.055 16.757C82.191 16.757 81.379 16.289 81.101 15.759C81.101 15.759 80.636 17.603 80.538 17.958C80.368 18.574 80.036 19.192 79.733 19.672C80.469 19.89 81.233 20 82.001 20C86.419 20 90 16.418 90 11.999C90 7.582 86.419 4 82.001 4Z" fill="#808080"/>
<path d="M16.641 5H19.095L13.735 10.93L20.041 19H15.103L11.236 14.106L6.81102 19H4.35602L10.09 12.657L4.04102 5H9.10302L12.599 9.474L16.641 5Z" fill="#808080"/>
</svg>
